<?xml version="1.0" encoding="UTF-8" standalone="no"?>
<!-- Created with Inkscape (http://www.inkscape.org/) -->

<svg
   width="36mm"
   height="36mm"
   viewBox="-3 -2 48 48"
   version="1.1"
   id="svg1"
   xml:space="preserve"
   inkscape:version="1.4.2 (f4327f4, 2025-05-13)"
   sodipodi:docname="error.svg"
   inkscape:export-filename="error.svg"
   inkscape:export-xdpi="96"
   inkscape:export-ydpi="96"
   xmlns:inkscape="http://www.inkscape.org/namespaces/inkscape"
   xmlns:sodipodi="http://sodipodi.sourceforge.net/DTD/sodipodi-0.dtd"
   xmlns="http://www.w3.org/2000/svg"
   xmlns:svg="http://www.w3.org/2000/svg"><sodipodi:namedview
     id="namedview1"
     pagecolor="#ffffff"
     bordercolor="#000000"
     borderopacity="0.25"
     inkscape:showpageshadow="2"
     inkscape:pageopacity="0.0"
     inkscape:pagecheckerboard="0"
     inkscape:deskcolor="#d1d1d1"
     inkscape:document-units="mm"
     inkscape:zoom="2.096401"
     inkscape:cx="227.0558"
     inkscape:cy="265.69345"
     inkscape:window-width="2400"
     inkscape:window-height="1320"
     inkscape:window-x="2391"
     inkscape:window-y="-9"
     inkscape:window-maximized="1"
     inkscape:current-layer="layer1"><inkscape:page
       x="0"
       y="0"
       width="36"
       height="36"
       id="page1"
       margin="0"
       bleed="0" /></sodipodi:namedview><defs
     id="defs1" /><g
     inkscape:label="Layer 1"
     inkscape:groupmode="layer"
     id="layer1"
     transform="translate(-35.133718,-22.512886)"><g
       id="g8"
       inkscape:label="Robby"><ellipse
         style="fill:#000000;stroke-width:0.264583"
         id="path3495"
         cx="51.526196"
         cy="84.843567"
         rx="13.59895"
         ry="5.8371367" /><g
         id="g3"
         inkscape:label="Foot"
         transform="translate(0,-1.5875)"><rect
           style="fill:#999999;stroke-width:0.251127"
           id="rect2"
           width="9"
           height="9"
           x="53.044369"
           y="78.960419"
           ry="2.3310091"
           rx="4.4175177" /><rect
           style="fill:#ffffff;stroke-width:0.251127"
           id="rect2-2"
           width="8"
           height="8"
           x="53.572021"
           y="79.450279"
           ry="2.3310091"
           rx="4.4175177" /><ellipse
           style="fill:#999999;stroke-width:0.264583"
           id="path3"
           cx="57.529495"
           cy="81.33783"
           rx="3.2"
           ry="1.5" /></g><g
         id="g3-2"
         inkscape:label="Foot"
         transform="translate(-11.645834,-1.5875)"><rect
           style="fill:#999999;stroke-width:0.251127"
           id="rect2-3"
           width="9"
           height="9"
           x="53.044369"
           y="78.960419"
           ry="2.3310091"
           rx="4.4175177" /><rect
           style="fill:#ffffff;stroke-width:0.251127"
           id="rect2-2-2"
           width="8"
           height="8"
           x="53.572021"
           y="79.450279"
           ry="2.3310091"
           rx="4.4175177" /><ellipse
           style="fill:#999999;stroke-width:0.264583"
           id="path3-2"
           cx="57.529495"
           cy="81.33783"
           rx="3.2"
           ry="1.5" /></g><g
         id="g2"
         inkscape:label="Body"><rect
           style="fill:#999999;stroke-width:0.282658"
           id="rect1"
           width="29"
           height="28"
           x="36.718746"
           y="50.960419"
           ry="7.2401881" /><rect
           style="fill:#ffffff;stroke-width:0.282658"
           id="rect1-1"
           width="27"
           height="27"
           x="38.081993"
           y="51.549656"
           ry="7.2401881" /></g><g
         id="g1"
         inkscape:label="Head"><circle
           style="fill:#999999;stroke-width:0.264583"
           id="path1"
           cx="53.13372"
           cy="40.512886"
           r="18" /><circle
           style="fill:#ffffff;stroke-width:0.264583"
           id="path1-8"
           cx="53.592537"
           cy="40.892521"
           r="17" /><g
           id="g5"
           inkscape:label="Visor"
           transform="rotate(0.35493037,103.95545,38.530439)"><rect
             style="fill:#999999;stroke-width:0.264583"
             id="rect4"
             width="26"
             height="19"
             x="45.134796"
             y="35.559204"
             rx="3.8180289"
             ry="3.9256961" /><rect
             style="fill:#000000;stroke-width:0.264583"
             id="rect4-7"
             width="25"
             height="18"
             x="45.916077"
             y="36.254505"
             rx="3.8180289"
             ry="3.7696533" /></g><g
           id="g6"
           inkscape:label="Eyes"
           transform="translate(3.5920222,0.08924279)"
           style="display:none"><ellipse
             style="fill:#00ffff;stroke-width:0.264583"
             id="path5"
             cx="53.010216"
             cy="47.57756"
             rx="1.0709134"
             ry="2.4207106" /><ellipse
             style="fill:#00ffff;stroke-width:0.264583"
             id="path5-9"
             cx="60.489426"
             cy="47.574924"
             rx="1.0709134"
             ry="2.4207106" /></g><g
           id="g3494"
           inkscape:label="Eyebrows"
           style="display:none"><rect
             style="fill:#00ffff;stroke-width:0.159154"
             id="rect9"
             width="6.3362379"
             height="0.88800365"
             x="52.033962"
             y="43.525211"
             rx="1.2938641"
             ry="0.86766213" /><rect
             style="fill:#00ffff;stroke-width:0.159154"
             id="rect9-6"
             width="6.3362379"
             height="0.88800365"
             x="60.911583"
             y="42.099564"
             rx="1.2938641"
             ry="0.86766213" /></g></g><g
         id="g4-3"
         inkscape:label="Hand"
         transform="matrix(0.92585657,0,0,0.92585657,44.687996,9.7531762)"><circle
           style="fill:#999999;stroke-width:0.264583"
           id="path4-3"
           cx="22.591297"
           cy="64.019188"
           r="5" /><circle
           style="fill:#ffffff;stroke-width:0.264583"
           id="path4-7-4"
           cx="22.714916"
           cy="64.128288"
           r="4.5" /></g><g
         id="g4-3-8"
         inkscape:label="Hand"
         transform="matrix(0.92585657,0,0,0.92585657,15.687992,9.7531762)"><circle
           style="fill:#999999;stroke-width:0.264583"
           id="path4-3-2"
           cx="22.591297"
           cy="64.019188"
           r="5" /><circle
           style="fill:#ffffff;stroke-width:0.264583"
           id="path4-7-4-4"
           cx="22.714916"
           cy="64.128288"
           r="4.5" /></g><g
         id="g4"
         inkscape:label="HappyEyes"><rect
           style="fill:#00ffff;stroke-width:0.264583"
           id="rect3"
           width="3.5969386"
           height="5.7424803"
           x="52.053638"
           y="42.972809"
           rx="2.5767341"
           ry="1.8615713" /><rect
           style="fill:#00ffff;stroke-width:0.264583"
           id="rect3-1"
           width="3.5969386"
           height="5.7424803"
           x="61.384426"
           y="42.972809"
           rx="2.5767341"
           ry="1.8615713" /><rect
           style="fill:#000000;stroke-width:0.326724"
           id="rect5"
           width="2"
           height="6.1575165"
           x="52.818451"
           y="43.819855"
           rx="2.5767341"
           ry="1.6819696" /><rect
           style="fill:#000000;stroke-width:0.326724"
           id="rect5-6"
           width="2"
           height="6.1575165"
           x="62.166851"
           y="43.765591"
           rx="2.5767341"
           ry="1.6819696" /></g><rect
         style="fill:#000000;stroke-width:0.297932"
         id="rect7"
         width="19.499191"
         height="3.0605528"
         x="49.085629"
         y="45.846428"
         rx="2.5767341"
         ry="2.3604238" /></g><path
       d="m 75.412394,-2.0399015 q 0.387216,-0.707091 1.026965,-1.0943075 0.639749,-0.4040521 1.464689,-0.4040521 1.53203,0 2.407476,0.7575976 0.875446,0.7575975 0.875446,2.10443756 0,0.69025553 -0.269368,1.21215605 -0.252532,0.52190049 -0.656584,0.95962359 -0.387217,0.437723 -0.82494,0.8249395 -0.420887,0.3872165 -0.757597,0.7912685 -0.33671,0.404052 -0.471394,0.8754461 -0.06734,0.269368 -0.117849,0.5219005 -0.03367,0.2525325 0.01684,0.505065 0.06734,0.2525325 0.269368,0.5219005 l -0.101013,0.084178 q -0.437723,-0.404052 -0.589243,-0.808104 -0.151519,-0.404052 -0.151519,-0.808104 0,-0.4713941 0.235697,-0.8922816 0.252532,-0.4208875 0.606078,-0.8249395 0.353545,-0.4208875 0.707091,-0.8586105 0.353545,-0.43772307 0.589242,-0.95962359 0.252533,-0.52190052 0.252533,-1.14481405 0,-1.11114306 -0.538736,-1.73405656 -0.538736,-0.6229135 -1.481524,-0.6229135 -1.01013,0 -1.599373,0.6902555 -0.572407,0.6902555 -0.555571,1.90241157 h -0.168355 z m 2.69368,10.58953 q -0.319875,0 -0.538736,-0.2188616 -0.218862,-0.2188615 -0.218862,-0.538736 0,-0.3198745 0.218862,-0.538736 0.218861,-0.2188615 0.538736,-0.2188615 0.319874,0 0.538736,0.2188615 0.218861,0.2188615 0.218861,0.538736 0,0.3198745 -0.218861,0.538736 -0.218862,0.2188616 -0.538736,0.2188616 z"
       id="text10"
       style="font-size:16.8355px;line-height:1.1;font-family:Cinzel;-inkscape-font-specification:Cinzel;letter-spacing:0.526112px;display:none;fill:#cccccc;stroke-width:0.105222"
       transform="rotate(18.895239)"
       aria-label="?" /></g></svg>
