<?xml version="1.0" encoding="UTF-8" standalone="no"?>
<!-- Created with Inkscape (http://www.inkscape.org/) -->

<svg
   width="512"
   height="512"
   viewBox="0 0 512 512"
   version="1.1"
   id="svg1"
   xmlns:xlink="http://www.w3.org/1999/xlink"
   xmlns="http://www.w3.org/2000/svg"
   xmlns:svg="http://www.w3.org/2000/svg">
  <defs
     id="defs1">
    <linearGradient
       id="linearGradient239">
      <stop
         style="stop-color:#66d8ff;stop-opacity:1;"
         offset="0"
         id="stop240" />
      <stop
         style="stop-color:#66d9ff;stop-opacity:0;"
         offset="1"
         id="stop242" />
    </linearGradient>
    <linearGradient
       id="linearGradient4">
      <stop
         style="stop-color:#ededed;stop-opacity:0;"
         offset="0.49720222"
         id="stop4" />
      <stop
         style="stop-color:#ededed;stop-opacity:1;"
         offset="0.49720222"
         id="stop5" />
      <stop
         style="stop-color:#ededed;stop-opacity:1;"
         offset="0.74860108"
         id="stop7" />
    </linearGradient>
    <linearGradient
       id="linearGradient1">
      <stop
         style="stop-color:#ededed;stop-opacity:1;"
         offset="0"
         id="stop1" />
      <stop
         style="stop-color:#ededed;stop-opacity:1;"
         offset="0.50279778"
         id="stop6" />
      <stop
         style="stop-color:#ededed;stop-opacity:0;"
         offset="0.50279778"
         id="stop2" />
    </linearGradient>
    <linearGradient
       xlink:href="#linearGradient1"
       id="linearGradient2"
       x1="124.23181"
       y1="218.43039"
       x2="475.83127"
       y2="218.43039"
       gradientUnits="userSpaceOnUse" />
    <linearGradient
       xlink:href="#linearGradient4"
       id="linearGradient3"
       gradientUnits="userSpaceOnUse"
       x1="124.23182"
       y1="218.43039"
       x2="475.83121"
       y2="218.43037"
       gradientTransform="translate(1.1284332e-5,10.501334)" />
    <mask
       maskUnits="userSpaceOnUse"
       id="mask12">
      <path
         style="fill:#ededed"
         d="M 65.63191,290.8904 C 124.23183,27.828865 160.11301,29.929156 160.11301,29.929156 l 219.97508,231.163354 37.14334,-27.43507 9.01537,-47.78163 12.98214,46.73149 14.42459,174.84928 -62.74699,1.57522 c 0,0 -174.53761,-217.38019 -174.53761,-214.22975 0,3.15044 25.06274,204.77844 25.06274,204.77844 L 85.826344,395.90498 Z"
         id="path13" />
    </mask>
    <mask
       maskUnits="userSpaceOnUse"
       id="mask13">
      <path
         style="fill:#ededed"
         d="M 65.63191,290.8904 C 124.23183,27.828865 160.11301,29.929156 160.11301,29.929156 l 219.97508,231.163354 37.14334,-27.43507 9.01537,-47.78163 12.98214,46.73149 14.42459,174.84928 -62.74699,1.57522 c 0,0 -174.53761,-217.38019 -174.53761,-214.22975 0,3.15044 25.06274,204.77844 25.06274,204.77844 L 85.826344,395.90498 Z"
         id="path14" />
    </mask>
    <radialGradient
       xlink:href="#linearGradient239"
       id="radialGradient241"
       cx="341.53845"
       cy="106"
       fx="341.53845"
       fy="106"
       r="64.461548"
       gradientUnits="userSpaceOnUse" />
  </defs>
  <g
     id="layer1">
    <text
       xml:space="preserve"
       style="font-size:468.173px;line-height:1.1;font-family:'Atkinson Hyperlegible Mono';-inkscape-font-specification:'Atkinson Hyperlegible Mono';text-align:start;letter-spacing:14.6304px;writing-mode:lr-tb;direction:ltr;text-anchor:start;fill:url(#linearGradient2);stroke-width:2.92608"
       x="103.16489"
       y="382.52463"
       id="text1"
       transform="scale(0.85324349,1.1719984)"
       mask="url(#mask13)"><tspan
         id="tspan1"
         x="103.16489"
         y="382.52463"
         style="font-style:normal;font-variant:normal;font-weight:normal;font-stretch:normal;font-size:468.173px;font-family:Cinzel;-inkscape-font-specification:Cinzel;fill:url(#linearGradient2);stroke-width:2.92608">N</tspan></text>
    <text
       xml:space="preserve"
       style="font-size:468.173px;line-height:1.1;font-family:'Atkinson Hyperlegible Mono';-inkscape-font-specification:'Atkinson Hyperlegible Mono';text-align:start;letter-spacing:14.6304px;writing-mode:lr-tb;direction:ltr;text-anchor:start;fill:url(#linearGradient3);stroke-width:2.92608"
       x="103.16489"
       y="393.02597"
       id="text1-1"
       transform="scale(0.85324349,1.1719984)"
       mask="url(#mask12)"><tspan
         id="tspan1-5"
         x="103.16489"
         y="393.02597"
         style="font-style:normal;font-variant:normal;font-weight:normal;font-stretch:normal;font-size:468.173px;font-family:Cinzel;-inkscape-font-specification:Cinzel;fill:url(#linearGradient3);stroke-width:2.92608">N</tspan></text>
    <path
       style="display:inline;fill:url(#radialGradient241);fill-opacity:1;fill-rule:nonzero"
       id="path15-2"
       d="m 406,106 c 0,2.98293 -57.33836,2.90468 -59.44762,5.01393 -2.10925,2.10925 -2.03099,59.44762 -5.01393,59.44762 -2.98293,0 -2.90468,-57.33837 -5.01393,-59.44762 -2.10925,-2.10925 -59.44762,-2.031 -59.44762,-5.01393 0,-2.98293 57.33837,-2.90468 59.44762,-5.01393 2.10925,-2.109255 2.031,-59.447618 5.01393,-59.447618 2.98294,0 2.90468,57.338363 5.01393,59.447618 C 348.66164,103.09532 406,103.01707 406,106 Z"
       transform="matrix(-1.7732518,0.00789067,-0.00880134,-1.9779037,969.93379,357.74172)" />
    <text
       xml:space="preserve"
       style="font-size:160px;line-height:1.1;font-family:Cinzel;-inkscape-font-specification:Cinzel;text-align:start;letter-spacing:5px;writing-mode:lr-tb;direction:ltr;text-anchor:start;fill:#e6e6e6;fill-opacity:0"
       x="45.5"
       y="249"
       id="text9"><tspan
         id="tspan9"
         x="45.5"
         y="249"
         style="fill:#e6e6e6;fill-opacity:0.971476" /></text>
    <path
       style="fill:#e0e0e0;fill-opacity:1"
       d="m 257.01122,285.09661 -1.72358,-2.29809 -0.35355,-2.01084 c 0,0 -0.24307,-42.27172 -0.15468,-42.22753 0.0884,0.0442 1.96664,2.85052 1.96664,2.85052 l 0.28726,1.76777 z"
       id="path9" />
  </g>
</svg>
