<?xml version="1.0" encoding="UTF-8" standalone="no"?>
<!-- Created with Inkscape (http://www.inkscape.org/) -->

<svg
   width="1920"
   height="1080"
   viewBox="0 0 1920 1080"
   version="1.1"
   id="svg1"
   inkscape:version="1.4.2 (f4327f4, 2025-05-13)"
   sodipodi:docname="full_name_logo_moto.svg"
   inkscape:export-filename="full_name_logo_moto.svg"
   inkscape:export-xdpi="96"
   inkscape:export-ydpi="96"
   xmlns:inkscape="http://www.inkscape.org/namespaces/inkscape"
   xmlns:sodipodi="http://sodipodi.sourceforge.net/DTD/sodipodi-0.dtd"
   xmlns="http://www.w3.org/2000/svg"
   xmlns:svg="http://www.w3.org/2000/svg">
  <sodipodi:namedview
     id="namedview1"
     pagecolor="#282828"
     bordercolor="#000000"
     borderopacity="0"
     inkscape:showpageshadow="2"
     inkscape:pageopacity="0.0"
     inkscape:pagecheckerboard="0"
     inkscape:deskcolor="#d1d1d1"
     inkscape:document-units="px"
     showgrid="true"
     showguides="true"
     inkscape:zoom="1.0894682"
     inkscape:cx="914.20748"
     inkscape:cy="604.88226"
     inkscape:window-width="1920"
     inkscape:window-height="1050"
     inkscape:window-x="-9"
     inkscape:window-y="-9"
     inkscape:window-maximized="1"
     inkscape:current-layer="layer1">
    <inkscape:grid
       id="grid1"
       units="px"
       originx="0"
       originy="0"
       spacingx="50"
       spacingy="50"
       empcolor="#0099e5"
       empopacity="0.30196078"
       color="#0099e5"
       opacity="0.14901961"
       empspacing="5"
       enabled="true"
       visible="false"
       snapvisiblegridlinesonly="false" />
    <inkscape:grid
       id="grid3"
       units="px"
       originx="0"
       originy="0"
       spacingx="960"
       spacingy="540"
       empcolor="#0099e5"
       empopacity="0.30196078"
       color="#0099e5"
       opacity="0.14901961"
       empspacing="5"
       enabled="true"
       visible="true"
       dotted="false" />
    <inkscape:page
       x="0"
       y="0"
       width="1920"
       height="1080"
       id="page2"
       margin="0"
       bleed="0" />
  </sodipodi:namedview>
  <defs
     id="defs1" />
  <g
     inkscape:label="Layer 1"
     inkscape:groupmode="layer"
     id="layer1">
    <path
       d="m 397.81423,394.20001 127.6,121.6 2.4,24.2 -127.6,-121.4 z m 1,128.8 v 14.2 h -16.6 v -2 q 0,0 1.8,0 1.8,0 2,0 5,0 8.6,-3.6 3.6,-3.6 3.6,-8.6 z m 28,0 q 0,5 3.6,8.6 3.6,3.6 8.6,3.6 0.2,0 2,0 1.8,0 1.8,0 v 2 h -16.6 v -14.2 z m -29,-128.8 28.8,30.6 0.2,112.4 h -28.6 v -118 q 0,-11.2 -1.2,-18 -1.2,-7 -1.2,-7 z m 129.4,3 v 117.2 q 0,7.4 0.6,13.4 0.6,5.8 1.2,9 0.6,3.2 0.6,3.2 h -1.8 l -29,-32.4 v -110.4 z m 16,0 v 2 q 0,0 -1.8,0 -1.8,0 -1.8,0 -5,0 -8.6,3.6 -3.6,3.4 -3.8,8.6 h -0.6 v -14.2 z m -60.6,0 h 16.6 v 14.2 h -0.4 q -0.2,-5.2 -3.8,-8.6 -3.4,-3.6 -8.6,-3.6 0,0 -1.8,0 -1.8,0 -2,0 z m 117.99996,0 v 88 q 0,14.2 4.6,24.6 4.8,10.4 13.4,16 8.8,5.6 20.8,5.6 12.2,0 21,-5.2 9,-5.4 13.8,-15.2 4.8,-9.8 4.8,-23.2 v -90.6 h 14.4 v 89.4 q 0,16.4 -7,28.4 -6.8,12 -19.8,18.6 -12.8,6.4 -31,6.4 -21.2,0 -35.8,-6.4 -14.6,-6.6 -22,-18.4 -7.2,-12 -7.2,-28.4 v -89.6 z m -29.4,0 v 12 h -0.6 q 0,-4.4 -3.2,-7.2 -3,-2.8 -7.4,-2.8 0,0 -1.6,0 -1.6,0 -1.6,0 v -2 z m 43.2,0 v 2 q 0,0 -1.6,0 -1.6,0 -1.6,0 -4.4,0 -7.6,2.8 -3,2.8 -3,7.2 h -0.4 v -12 z m 65.2,0 v 12 h -0.6 q 0,-4.4 -3.2,-7.2 -3,-2.8 -7.4,-2.8 0,0 -1.6,0 -1.6,0 -1.6,0 v -2 z m 27.6,0 v 2 q 0,0 -1.6,0 -1.6,0 -1.6,0 -4.4,0 -7.6,2.8 -3,2.8 -3,7.2 h -0.4 v -12 z m 57.15673,0 v 140 h -30 v -140 z m 52.8,131.4 4.8,8.6 h -58.2 v -8.6 z m 14.6,-32.4 -9.2,41 h -39.2 l 7.2,-8.6 q 10,0 17.6,-3.8 7.6,-4 13,-11.2 5.4,-7.4 8.6,-17.4 z m -96.8,26.4 v 14.6 h -16 v -2 q 0,0 1.2,0 1.4,0 1.4,0 5.2,0 8.8,-3.6 3.8,-3.8 4,-9 z m 0,-110.8 h -0.6 q -0.2,-5.2 -4,-8.8 -3.6,-3.8 -8.8,-3.8 0,0 -1.4,0 -1.2,0 -1.2,0 v -2 h 16 z m 28.8,0 v -14.6 h 16 v 2 q -0.2,0 -1.4,0 -1.2,0 -1.2,0 -5.2,0 -9,3.8 -3.6,3.6 -3.8,8.8 z m 122.82174,-14.6 v 140 h -30 v -140 z m 52.8,131.4 4.8,8.6 h -58.2 v -8.6 z m 14.6,-32.4 -9.2,41 h -39.2 l 7.2,-8.6 q 10,0 17.6,-3.8 7.6,-4 13,-11.2 5.4,-7.4 8.6,-17.4 z m -96.8,26.4 v 14.6 h -16 v -2 q 0,0 1.2,0 1.4,0 1.4,0 5.2,0 8.8,-3.6 3.8,-3.8 4,-9 z m 0,-110.8 h -0.6 q -0.2,-5.2 -4,-8.8 -3.6,-3.8 -8.8,-3.8 0,0 -1.4,0 -1.2,0 -1.2,0 v -2 h 16 z m 28.8,0 v -14.6 h 16 v 2 q -0.2,0 -1.4,0 -1.2,0 -1.2,0 -5.2,0 -9,3.8 -3.6,3.6 -3.8,8.8 z m 191.20014,-17.4 q 0,0 0,1 0,0.8 0,0.8 l -78.79999,141 h -33.2 v -1.8 l 73.19999,-130 h -70.39999 v -8.4 h 87.99999 q 4,0 8.4,-0.4 4.6,-0.4 8,-1 3.6,-0.6 4.8,-1.2 z m -2.2,134.4 -1.2,8.4 h -94.59999 v -8.4 z m 7.8,-31.8 -7.2,40.2 h -36.6 l 2.6,-6.4 3.2,-2 q 13.2,0 22.6,-8.6 9.6,-8.8 13.4,-23.2 z m -92.59999,-91.6 q -9.4,0.2 -14.8,5.8 -5.4,5.4 -5.4,14.8 v 2.4 h -2 v -23.6 h 22.2 z m -22.2,-12 q 2,0.8 6,1.6 4.2,0.8 9.2,1.4 5,0.6 9.2,0.6 l -24.4,2.2 z m 207.62149,1 q 24,0 41.6,9 17.8,8.8 27.4,25 9.8,16.2 9.8,38.8 0,22.4 -9.8,38.8 -9.6,16.2 -27.4,25.2 -17.6,8.8 -41.6,8.8 -24,0 -41.8,-8.8 -17.6,-9 -27.2,-25.2 -9.6,-16.2 -9.6,-38.8 0,-22.4 9.6,-38.6 9.6,-16.4 27.2,-25.2 17.8,-9 41.8,-9 z m 0,137.2 q 14.2,0 24.4,-7.8 10.2,-8 15.8,-22.4 5.6,-14.4 5.6,-34.2 0,-19.8 -5.6,-34.2 -5.6,-14.4 -15.8,-22.2 -10.2,-8 -24.4,-8 -14,0 -24.4,8 -10.2,7.8 -15.8,22.2 -5.6,14.4 -5.6,34.2 0,19.8 5.6,34.2 5.6,14.4 15.8,22.4 10.4,7.8 24.4,7.8 z m 104.9999,-137.4 127.6,121.6 2.4,24.2 -127.6,-121.4 z m 1,128.8 v 14.2 h -16.6 v -2 q 0,0 1.8,0 1.8,0 2,0 5,0 8.6,-3.6 3.6,-3.6 3.6,-8.6 z m 28,0 q 0,5 3.6,8.6 3.6,3.6 8.6,3.6 0.2,0 2,0 1.8,0 1.8,0 v 2 h -16.6 v -14.2 z m -29,-128.8 28.8,30.6 0.2,112.4 h -28.6 v -118 q 0,-11.2 -1.2,-18 -1.2,-7 -1.2,-7 z m 129.4,3 v 117.2 q 0,7.4 0.6,13.4 0.6,5.8 1.2,9 0.6,3.2 0.6,3.2 h -1.8 l -29,-32.4 v -110.4 z m 16,0 v 2 q 0,0 -1.8,0 -1.8,0 -1.8,0 -5,0 -8.6,3.6 -3.6,3.4 -3.8,8.6 h -0.6 v -14.2 z m -60.6,0 h 16.6 v 14.2 h -0.4 q -0.2,-5.2 -3.8,-8.6 -3.4,-3.6 -8.6,-3.6 0,0 -1.8,0 -1.8,0 -2,0 z m 117.1856,0 v 140 h -30 v -140 z m 52.8,131.4 4.8,8.6 h -58.2 v -8.6 z m -7.4,-64.6 v 8.4 h -46 v -8.4 z m 9.8,-66.8 v 8.6 h -55.8 v -8.6 z m 12.2,99 -9.2,41 h -39.2 l 7.2,-8.6 q 10,0 17.6,-3.8 7.6,-4 13,-11.2 5.4,-7.4 8.6,-17.4 z m -22,-24.2 v 19.2 h -2 v -1.6 q 0,-7.4 -4.8,-12.2 -4.8,-4.8 -12.2,-5 v -0.4 z m 0,-26.8 v 19.2 h -19 v -0.4 q 7.4,-0.2 12.2,-5 4.8,-5 4.8,-12.4 v -1.4 z m 9.8,-40 v 23.4 h -2 v -2.4 q 0,-9.2 -5.6,-14.8 -5.4,-5.6 -14.8,-5.8 v -0.4 z m 0,-11.6 v 5.8 l -24.4,-2.2 q 4.4,0 9.2,-0.6 5,-0.6 9.2,-1.4 4.2,-0.8 6,-1.6 z m -84.6,129 v 14.6 h -16 v -2 q 0,0 1.2,0 1.4,0 1.4,0 5.2,0 8.8,-3.6 3.8,-3.8 4,-9 z m 0,-110.8 h -0.6 q -0.2,-5.2 -4,-8.8 -3.6,-3.8 -8.8,-3.8 0,0 -1.4,0 -1.2,0 -1.2,0 v -2 h 16 z"
       id="text1"
       style="font-weight:bold;font-size:200px;font-family:Cinzel;-inkscape-font-specification:'Cinzel Bold';fill:#ededed"
       aria-label="NULLZONE" />
    <path
       style="font-size:80px;line-height:1.1;font-family:'Atkinson Hyperlegible Mono';-inkscape-font-specification:'Atkinson Hyperlegible Mono';letter-spacing:20px;fill:#ededed"
       d="m 756.4,618.79215 q -4.24,0 -8.4,-1.36 -4.16,-1.36 -7.28,-4.16 -3.12,-2.8 -4.56,-7.04 l 6.64,-2.48 q 0.88,3.04 2.96,5.12 2.16,2.08 4.96,3.12 2.8,0.96 5.84,0.96 3.52,0 6.4,-1.12 2.96,-1.12 4.72,-3.36 1.84,-2.24 1.84,-5.52 0,-3.36 -2.48,-5.44 -2.4,-2.16 -8.72,-3.6 l -6.64,-1.6 q -3.92,-0.96 -7.2,-2.56 -3.2,-1.68 -5.12,-4.48 -1.92,-2.8 -1.92,-7.04 0,-4.32 2.56,-7.68 2.56,-3.36 6.88,-5.2 4.32,-1.92 9.68,-1.92 3.76,0 7.28,1.04 3.52,1.04 6.4,3.28 2.88,2.16 4.48,5.6 l -6.56,2.48 q -1.12,-2.16 -3.04,-3.6 -1.84,-1.44 -4.16,-2.16 -2.32,-0.8 -4.64,-0.8 -3.12,0 -5.84,0.96 -2.72,0.96 -4.32,2.96 -1.6,1.92 -1.6,4.88 0,3.2 2.48,5.12 2.56,1.84 6.16,2.72 l 6.96,1.76 q 4.88,1.12 8.56,2.88 3.76,1.76 5.84,4.64 2.08,2.8 2.08,7.44 0,4.96 -2.8,8.56 -2.8,3.6 -7.44,5.6 -4.56,2 -10,2 z m 67.03999,-0.96 v -47.28 h -17.04 v -6.16 h 41.12 v 6.16 h -17.04 v 47.28 z m 74.08,0.96 q -10.24,0 -14.8,-5.2 -4.48,-5.28 -4.48,-15.76 v -33.44 h 7.12 v 34.16 q 0,6.96 2.8,10.72 2.8,3.68 9.36,3.68 4.4,0 7.04,-1.68 2.72,-1.68 3.92,-4.88 1.2,-3.2 1.2,-7.84 v -34.16 h 7.12 v 33.44 q 0,10.48 -4.56,15.76 -4.56,5.2 -14.72,5.2 z m 51.12,-0.96 v -53.44 h 13.84 q 6,0 11.04,1.36 5.12,1.36 8.8,4.56 3.76,3.12 5.84,8.24 2.08,5.04 2.08,12.48 0,7.36 -2.08,12.56 -2.08,5.12 -5.84,8.24 -3.68,3.12 -8.8,4.56 -5.04,1.44 -11.04,1.44 z m 6.72,-5.84 h 6.56 q 4.08,0 7.92,-0.8 3.84,-0.88 6.88,-3.04 3.04,-2.24 4.8,-6.32 1.84,-4.16 1.84,-10.8 0,-6.72 -1.84,-10.8 -1.76,-4.16 -4.8,-6.24 -3.04,-2.16 -6.88,-2.96 -3.84,-0.8 -7.92,-0.8 h -6.56 z m 68.64001,5.84 v -5.2 h 11.12 v -43.04 H 1024 v -5.2 h 29.28 v 5.2 h -11.12 v 43.04 h 11.12 v 5.2 z m 85.2,0.96 q -6.96,0 -11.92,-3.52 -4.96,-3.52 -7.6,-9.76 -2.56,-6.24 -2.56,-14.4 0,-8.16 2.56,-14.4 2.64,-6.24 7.6,-9.76 4.96,-3.52 11.92,-3.52 6.96,0 11.92,3.52 4.96,3.52 7.52,9.76 2.64,6.24 2.64,14.4 0,8.16 -2.64,14.4 -2.56,6.24 -7.52,9.76 -4.96,3.52 -11.92,3.52 z m 0,-5.84 q 4.4,0 7.76,-2.48 3.44,-2.48 5.36,-7.36 2,-4.88 2,-12 0,-7.12 -2,-12 -1.92,-4.88 -5.36,-7.36 -3.36,-2.48 -7.76,-2.48 -4.32,0 -7.76,2.48 -3.44,2.48 -5.44,7.36 -1.92,4.88 -1.92,12 0,7.12 1.92,12 2,4.88 5.44,7.36 3.44,2.48 7.76,2.48 z m 70.56,5.84 q -4.24,0 -8.4,-1.36 -4.16,-1.36 -7.28,-4.16 -3.12,-2.8 -4.56,-7.04 l 6.64,-2.48 q 0.88,3.04 2.96,5.12 2.16,2.08 4.96,3.12 2.8,0.96 5.84,0.96 3.52,0 6.4,-1.12 2.96,-1.12 4.72,-3.36 1.84,-2.24 1.84,-5.52 0,-3.36 -2.48,-5.44 -2.4,-2.16 -8.72,-3.6 l -6.64,-1.6 q -3.92,-0.96 -7.2,-2.56 -3.2,-1.68 -5.12,-4.48 -1.92,-2.8 -1.92,-7.04 0,-4.32 2.56,-7.68 2.56,-3.36 6.88,-5.2 4.32,-1.92 9.68,-1.92 3.76,0 7.28,1.04 3.52,1.04 6.4,3.28 2.88,2.16 4.48,5.6 l -6.56,2.48 q -1.12,-2.16 -3.04,-3.6 -1.84,-1.44 -4.16,-2.16 -2.32,-0.8 -4.64,-0.8 -3.12,0 -5.84,0.96 -2.72,0.96 -4.32,2.96 -1.6,1.92 -1.6,4.88 0,3.2 2.48,5.12 2.56,1.84 6.16,2.72 l 6.96,1.76 q 4.88,1.12 8.56,2.88 3.76,1.76 5.84,4.64 2.08,2.8 2.08,7.44 0,4.96 -2.8,8.56 -2.8,3.6 -7.44,5.6 -4.56,2 -10,2 z"
       id="text3"
       aria-label="STUDIOS" />
    <rect
       style="fill:#ededed;fill-opacity:1;stroke-width:0.522982"
       id="rect3"
       width="1163.5745"
       height="3.6211979"
       x="381.88428"
       y="550"
       ry="1.810599" />
    <path
       d="m 715.60739,668.1333 v -17.81336 h 11.20001 v 2.05334 h -8.85334 v 5.84001 h 8.74667 v 2.05333 h -8.74667 v 7.86668 z m 21.16001,0 v -17.81336 h 5.92001 q 1.84,0 3.22667,0.56001 1.41334,0.56 2.21334,1.70666 0.82667,1.12001 0.82667,2.93334 0,2.29334 -1.36,3.52001 -1.36001,1.2 -3.52001,1.46666 l 5.33334,7.62668 h -2.72 l -5.01334,-7.41334 h -2.66667 v 7.41334 z m 2.24001,-9.33334 h 3.6 q 1.17334,0 2.08,-0.32 0.90667,-0.34667 1.41334,-1.06667 0.53333,-0.72 0.53333,-1.89334 0,-1.17333 -0.53333,-1.89333 -0.50667,-0.72001 -1.41334,-1.04001 -0.90666,-0.34666 -2.08,-0.34666 h -3.6 z m 25.40002,9.65334 q -2.32,0 -3.97334,-1.17333 -1.65333,-1.17334 -2.53333,-3.25334 -0.85334,-2.08 -0.85334,-4.80001 0,-2.72 0.85334,-4.8 0.88,-2.08001 2.53333,-3.25334 1.65334,-1.17334 3.97334,-1.17334 2.32001,0 3.97334,1.17334 1.65334,1.17333 2.50667,3.25334 0.88,2.08 0.88,4.8 0,2.72001 -0.88,4.80001 -0.85333,2.08 -2.50667,3.25334 -1.65333,1.17333 -3.97334,1.17333 z m 0,-1.94667 q 1.46667,0 2.58667,-0.82667 1.14667,-0.82666 1.78667,-2.45333 0.66667,-1.62667 0.66667,-4.00001 0,-2.37333 -0.66667,-4 -0.64,-1.62667 -1.78667,-2.45334 -1.12,-0.82667 -2.58667,-0.82667 -1.44,0 -2.58667,0.82667 -1.14667,0.82667 -1.81333,2.45334 -0.64,1.62667 -0.64,4 0,2.37334 0.64,4.00001 0.66666,1.62667 1.81333,2.45333 1.14667,0.82667 2.58667,0.82667 z m 14.65334,1.62667 v -17.81336 h 3.38668 l 3.81333,14.77336 h 0.10667 l 3.76001,-14.77336 h 3.33333 v 17.81336 h -2.02667 v -15.41335 h -0.10666 l -4.00001,15.41335 h -2.10667 l -4.05334,-15.41335 h -0.10666 v 15.41335 z m 49.73339,0 v -15.76002 h -5.68001 v -2.05334 h 13.70669 v 2.05334 h -5.68001 v 15.76002 z m 16.22667,0 v -17.81336 h 2.34667 v 7.60001 h 8.90668 v -7.60001 h 2.34667 v 17.81336 h -2.34667 v -8.16001 h -8.90668 v 8.16001 z m 23.5067,0 v -17.81336 h 11.14668 v 2.05334 h -8.80001 v 5.57334 h 6.61334 v 2.02667 h -6.61334 v 6.10667 h 8.90668 v 2.05334 z m 42.4267,0 v -17.81336 h 3.09333 l 7.49335,15.01336 h 0.10666 v -15.01336 h 2.16001 v 17.81336 h -3.09334 l -7.49334,-15.01335 h -0.10667 v 15.01335 z m 28.28003,0.32 q -3.41333,0 -4.93334,-1.73333 -1.49333,-1.76001 -1.49333,-5.25334 v -11.14669 h 2.37334 v 11.38669 q 0,2.32 0.93333,3.57333 0.93333,1.22667 3.12,1.22667 1.46667,0 2.34667,-0.56 0.90667,-0.56 1.30667,-1.62667 0.4,-1.06667 0.4,-2.61333 v -11.38669 h 2.37334 v 11.14669 q 0,3.49333 -1.52,5.25334 -1.52001,1.73333 -4.90668,1.73333 z m 17.00001,-0.32 v -17.81336 h 2.34667 v 15.76002 h 9.62668 v 2.05334 z m 21.85335,0 v -17.81336 h 2.34667 v 15.76002 h 9.62668 v 2.05334 z m 25.05338,3.84001 1.3867,-3.54668 q -0.6667,-0.10666 -1.12,-0.61333 -0.4534,-0.53333 -0.4534,-1.22667 0,-0.53333 0.24,-0.93333 0.2667,-0.42667 0.6934,-0.66667 0.4266,-0.26667 0.9333,-0.26667 0.7733,0 1.3067,0.56 0.5333,0.53334 0.5333,1.30667 0,0.16 -0.027,0.37334 -0.027,0.21333 -0.16,0.50666 l -1.76,4.50668 z m 40.4,-3.84001 -3.1733,-17.81336 h 2.0533 l 2.32,14.80002 h 0.1067 l 2.56,-14.80002 h 2.2667 l 2.5333,14.80002 h 0.1067 l 2.32,-14.80002 h 2 l -3.1467,17.81336 h -2.48 l -2.4267,-14.34668 h -0.1066 l -2.4534,14.34668 z m 21.6667,0 v -17.81336 h 11.1467 v 2.05334 h -8.8 v 5.57334 h 6.6133 v 2.02667 h -6.6133 v 6.10667 h 8.9067 v 2.05334 z m 42.3734,0 v -17.81336 h 4.6133 q 2,0 3.68,0.45334 1.7067,0.45333 2.9333,1.52 1.2534,1.04 1.9467,2.74667 0.6934,1.68 0.6934,4.16001 0,2.45333 -0.6934,4.18667 -0.6933,1.70667 -1.9467,2.74667 -1.2266,1.04 -2.9333,1.52 -1.68,0.48 -3.68,0.48 z m 2.24,-1.94667 h 2.1866 q 1.36,0 2.64,-0.26667 1.28,-0.29333 2.2934,-1.01333 1.0133,-0.74667 1.6,-2.10667 0.6133,-1.38667 0.6133,-3.6 0,-2.24001 -0.6133,-3.60001 -0.5867,-1.38667 -1.6,-2.08 -1.0134,-0.72 -2.2934,-0.98667 -1.28,-0.26667 -2.64,-0.26667 h -2.1866 z m 20.3067,1.94667 v -17.81336 h 5.92 q 1.84,0 3.2266,0.56001 1.4134,0.56 2.2134,1.70666 0.8266,1.12001 0.8266,2.93334 0,2.29334 -1.36,3.52001 -1.36,1.2 -3.52,1.46666 l 5.3334,7.62668 h -2.72 l -5.0134,-7.41334 h -2.6666 v 7.41334 z m 2.24,-9.33334 h 3.6 q 1.1733,0 2.08,-0.32 0.9066,-0.34667 1.4133,-1.06667 0.5333,-0.72 0.5333,-1.89334 0,-1.17333 -0.5333,-1.89333 -0.5067,-0.72001 -1.4133,-1.04001 -0.9067,-0.34666 -2.08,-0.34666 h -3.6 z m 20.2533,9.33334 v -17.81336 h 11.1467 v 2.05334 h -8.8 v 5.57334 h 6.6133 v 2.02667 h -6.6133 v 6.10667 h 8.9067 v 2.05334 z m 19.48,0 6.2934,-17.81336 h 2.48 l 6.2666,17.81336 h -2.2666 l -1.3867,-4.08 h -7.7867 l -1.4133,4.08 z m 4.1867,-6.02667 h 6.5867 l -3.2267,-9.36002 h -0.1067 z m 17.9867,6.02667 v -17.81336 h 3.3867 l 3.8133,14.77336 h 0.1067 l 3.76,-14.77336 h 3.3333 v 17.81336 h -2.0267 v -15.41335 h -0.1066 l -4,15.41335 h -2.1067 l -4.0533,-15.41335 h -0.1067 v 15.41335 z m 29.0534,0.32 q -0.5067,0 -0.9334,-0.26667 -0.4266,-0.24 -0.6933,-0.66666 -0.24,-0.42667 -0.24,-0.93334 0,-0.53333 0.24,-0.93333 0.2667,-0.42667 0.6933,-0.66667 0.4267,-0.26667 0.9334,-0.26667 0.5333,0 0.9333,0.26667 0.4267,0.24 0.6667,0.66667 0.2666,0.4 0.2666,0.93333 0,0.50667 -0.2666,0.93334 -0.24,0.42666 -0.6667,0.66666 -0.4,0.26667 -0.9333,0.26667 z"
       id="text4"
       style="font-size:26.6667px;line-height:1.1;font-family:'Atkinson Hyperlegible Mono';-inkscape-font-specification:'Atkinson Hyperlegible Mono';letter-spacing:5px;display:none;fill:#ededed"
       aria-label="FROM THE NULL, WE DREAM." />
  </g>
</svg>
